<svg width="25" height="26" viewBox="0 0 25 26" fill="none" xmlns="http://www.w3.org/2000/svg">
<path d="M12.5 0.0654297C5.62499 0.0654297 0 5.70047 0 12.6407C0 18.9158 4.57499 24.1242 10.55 25.0654V16.2803H7.37499V12.6407H10.55V9.86714C10.55 6.71704 12.4125 4.98511 15.275 4.98511C16.6375 4.98511 18.0625 5.22356 18.0625 5.22356V8.32346H16.4875C14.9375 8.32346 14.45 9.28983 14.45 10.2813V12.6407H17.925L17.3625 16.2803H14.45V25.0654C17.3955 24.5984 20.0777 23.0894 22.0124 20.811C23.947 18.5326 25.0067 15.6348 25 12.6407C25 5.70047 19.375 0.0654297 12.5 0.0654297Z" fill="#CACACA"/>
</svg>
