<svg width="25" height="25" viewBox="0 0 25 25" fill="none" xmlns="http://www.w3.org/2000/svg">
<path d="M10.1074 12.5C10.1074 13.8214 11.1786 14.8926 12.5 14.8926C13.8214 14.8926 14.8926 13.8214 14.8926 12.5C14.8926 11.1786 13.8214 10.1074 12.5 10.1074C11.1786 10.1074 10.1074 11.1786 10.1074 12.5Z" fill="#CACACA"/>
<path d="M6.90482 8.26643C7.01983 7.95477 7.20332 7.67267 7.44174 7.44112C7.67329 7.2027 7.95519 7.01921 8.26705 6.9042C8.51996 6.80597 8.8999 6.68905 9.59971 6.6572C10.3567 6.62267 10.5837 6.61523 12.5002 6.61523C14.4169 6.61523 14.6439 6.62248 15.4007 6.65701C16.1005 6.68905 16.4807 6.80597 16.7334 6.9042C17.0452 7.01921 17.3273 7.2027 17.5587 7.44112C17.7971 7.67267 17.9806 7.95457 18.0958 8.26643C18.194 8.51934 18.311 8.89948 18.3428 9.59928C18.3773 10.3561 18.3848 10.5831 18.3848 12.4998C18.3848 14.4163 18.3773 14.6433 18.3428 15.4003C18.311 16.1001 18.194 16.48 18.0958 16.733C17.9806 17.0448 17.7973 17.3267 17.5589 17.5583C17.3273 17.7967 17.0454 17.9802 16.7336 18.0952C16.4807 18.1936 16.1005 18.3105 15.4007 18.3424C14.6439 18.3769 14.4171 18.3841 12.5004 18.3841C10.5835 18.3841 10.3565 18.3769 9.5999 18.3424C8.90009 18.3105 8.51996 18.1936 8.26705 18.0952C7.64105 17.8537 7.14629 17.3589 6.90482 16.733C6.80659 16.48 6.68967 16.1001 6.65763 15.4003C6.6231 14.6433 6.61585 14.4163 6.61585 12.4998C6.61585 10.5831 6.6231 10.3561 6.65763 9.59928C6.68948 8.89948 6.8064 8.51934 6.90482 8.26643ZM12.5002 16.1854C14.5359 16.1854 16.1862 14.5353 16.1862 12.4996C16.1862 10.4639 14.5359 8.81384 12.5002 8.81384C10.4647 8.81384 8.81446 10.4639 8.81446 12.4996C8.81446 14.5353 10.4647 16.1854 12.5002 16.1854ZM8.66873 9.52947C9.14443 9.52947 9.53009 9.14381 9.53009 8.66811C9.53009 8.19242 9.14443 7.80676 8.66873 7.80676C8.19304 7.80676 7.80737 8.19242 7.80737 8.66811C7.80757 9.14381 8.19304 9.52947 8.66873 9.52947Z" fill="#CACACA"/>
<path d="M12.5 0C19.4025 0 25 5.5975 25 12.5C25 19.4025 19.4025 25 12.5 25C5.5975 25 0 19.4025 0 12.5C0 5.5975 5.5975 0 12.5 0ZM5.36556 15.4593C5.40028 16.2233 5.52177 16.745 5.69916 17.2016C6.07204 18.1658 6.83422 18.928 7.79839 19.3008C8.25481 19.4782 8.77666 19.5995 9.54056 19.6344C10.306 19.6693 10.5505 19.6777 12.4998 19.6777C14.4493 19.6777 14.6936 19.6693 15.4593 19.6344C16.2231 19.5995 16.745 19.4782 17.2014 19.3008C17.6805 19.1206 18.1143 18.8381 18.4729 18.4729C18.8379 18.1145 19.1204 17.6805 19.3007 17.2016C19.478 16.7452 19.5995 16.2233 19.6342 15.4594C19.6695 14.6938 19.6777 14.4493 19.6777 12.5C19.6777 10.5507 19.6695 10.3062 19.6344 9.54075C19.5997 8.77666 19.4784 8.255 19.301 7.79839C19.1208 7.31945 18.8381 6.88553 18.4729 6.52714C18.1145 6.16188 17.6805 5.8794 17.2016 5.69916C16.745 5.52177 16.2233 5.40047 15.4593 5.36556C14.6938 5.33066 14.4493 5.32227 12.5 5.32227C10.5507 5.32227 10.3062 5.33066 9.54075 5.36575C8.77666 5.40047 8.255 5.52177 7.79839 5.69897C7.31945 5.87921 6.88553 6.16188 6.52695 6.52714C6.16188 6.88572 5.87921 7.31945 5.69916 7.79839C5.52158 8.255 5.40028 8.77666 5.36537 9.54075C5.33047 10.3062 5.32227 10.5507 5.32227 12.5C5.32227 14.4493 5.33047 14.6938 5.36556 15.4593Z" fill="#CACACA"/>
</svg>
