<svg width="39" height="39" viewBox="0 0 39 39" fill="none" xmlns="http://www.w3.org/2000/svg">
<path d="M38.25 19.375C38.25 29.7994 29.7994 38.25 19.375 38.25C8.95063 38.25 0.5 29.7994 0.5 19.375C0.5 8.95063 8.95063 0.5 19.375 0.5C29.7994 0.5 38.25 8.95063 38.25 19.375Z" fill="#2AABEE" stroke="#9643A4"/>
<path fill-rule="evenodd" clip-rule="evenodd" d="M9.49315 17.7489L21.1568 12.7249C26.711 10.4147 27.8651 10.0134 28.6173 10.0001C28.7828 9.99722 29.1527 10.0382 29.3923 10.2327C29.5947 10.3968 29.6503 10.6187 29.677 10.7743C29.7037 10.9299 29.7368 11.2845 29.7104 11.5616C29.4094 14.724 28.1071 22.3986 27.4445 25.9406C27.1641 27.4394 26.6125 27.9419 26.0777 27.9911C24.9163 28.0979 24.0343 27.2235 22.9094 26.4861L18.446 23.488C16.4714 22.1868 17.7515 21.4716 18.8768 20.3028C19.1713 19.9968 24.2886 15.3422 24.3876 14.92C24.3996 14.8672 24.4115 14.6704 24.2946 14.5664C24.1777 14.4624 24.005 14.4984 23.8805 14.5263C23.704 14.5663 20.8919 16.425 15.4444 20.1023C14.6462 20.6504 13.9232 20.9175 13.2755 20.9035C12.5613 20.888 11.1877 20.4997 10.1665 20.1677C8.91403 19.7606 7.91855 19.5453 8.00527 18.8539C8.05039 18.4938 8.54635 18.1255 9.49311 17.7489L9.49315 17.7489Z" fill="white"/>
</svg>
