<svg width="54" height="54" viewBox="0 0 54 54" fill="none" xmlns="http://www.w3.org/2000/svg">
<g filter="url(#filter0_d)">
<path d="M26.6983 0C14.1628 0 4 10.1623 4 22.6983C4 35.2343 14.1628 45.3966 26.6983 45.3966C39.2338 45.3966 49.3966 35.2343 49.3966 22.6983C49.3966 10.1623 39.2338 0 26.6983 0ZM38.2121 25.1532C39.27 26.1865 40.3893 27.159 41.339 28.2991C41.7598 28.8035 42.1564 29.325 42.4582 29.9116C42.8892 30.748 42.5 31.6652 41.7514 31.7149L37.1012 31.714C35.9002 31.8134 34.9445 31.329 34.1387 30.5079C33.4955 29.8535 32.8987 29.1546 32.2792 28.4779C32.0261 28.2002 31.7595 27.9388 31.4418 27.733C30.8079 27.3206 30.2571 27.4469 29.8939 28.1092C29.5238 28.7831 29.4393 29.5298 29.404 30.2799C29.3534 31.3764 29.0227 31.6629 27.9225 31.7145C25.5716 31.8245 23.341 31.4679 21.2679 30.2827C19.439 29.2373 18.0235 27.7618 16.79 26.0913C14.388 22.8348 12.5485 19.2607 10.8956 15.5839C10.5236 14.7559 10.7958 14.3128 11.7093 14.2956C13.227 14.2664 14.7447 14.2701 16.2624 14.2942C16.8801 14.304 17.2888 14.6574 17.5261 15.2403C18.3463 17.2581 19.3517 19.178 20.6117 20.9586C20.9474 21.4328 21.2902 21.9055 21.7783 22.2404C22.317 22.6101 22.7275 22.4879 22.9816 21.8865C23.1441 21.5043 23.2143 21.0956 23.2495 20.686C23.3703 19.283 23.3847 17.8805 23.1757 16.483C23.0457 15.6085 22.5539 15.0438 21.6821 14.8785C21.2382 14.7944 21.3032 14.63 21.5191 14.3764C21.8939 13.938 22.245 13.6668 22.9468 13.6668L28.2007 13.6659C29.0287 13.8284 29.2145 14.2 29.3269 15.0341L29.3315 20.8727C29.3218 21.1954 29.4936 22.1521 30.0732 22.3635C30.5376 22.5167 30.8441 22.1442 31.1219 21.8503C32.3818 20.5132 33.2795 18.9351 34.0834 17.3018C34.4382 16.5815 34.7443 15.8361 35.0415 15.0893C35.2626 14.5371 35.6062 14.2654 36.2295 14.2747L41.2888 14.2808C41.4379 14.2808 41.5893 14.2822 41.737 14.3077C42.5897 14.4535 42.8233 14.8204 42.5595 15.6522C42.1443 16.9591 41.3376 18.0476 40.549 19.139C39.7038 20.3075 38.8024 21.4351 37.9655 22.6087C37.1964 23.6815 37.2572 24.2216 38.2121 25.1532Z" fill="#CACACA"/>
</g>
<defs>
<filter id="filter0_d" x="0" y="0" width="53.3966" height="53.3966" filterUnits="userSpaceOnUse" color-interpolation-filters="sRGB">
<feFlood flood-opacity="0" result="BackgroundImageFix"/>
<feColorMatrix in="SourceAlpha" type="matrix" values="0 0 0 0 0 0 0 0 0 0 0 0 0 0 0 0 0 0 127 0"/>
<feOffset dy="4"/>
<feGaussianBlur stdDeviation="2"/>
<feColorMatrix type="matrix" values="0 0 0 0 0 0 0 0 0 0 0 0 0 0 0 0 0 0 0.25 0"/>
<feBlend mode="normal" in2="BackgroundImageFix" result="effect1_dropShadow"/>
<feBlend mode="normal" in="SourceGraphic" in2="effect1_dropShadow" result="shape"/>
</filter>
</defs>
</svg>
